# xmcd
# 
# Track frame offsets:
#     264
#     19346
#     34270
#     49857
#     65714
#     81554
#     104590
#     117321
#     132049
#     151041
#     163312
#     181607
#     200475
#     217900
#     239254
#     260489
#     282940
#     302142
#     319130
# 
# Disc length: 4487
# 
# Revision: 2
# Processed by: cddbd v1.5.2PL0 Copyright (c) Steve Scherf et al.
# Submitted via: fre:ac v1.0.17
# 
DISCID=16118413
DTITLE=Stony Plain Records - Compilation - 30 Years of Stony Plain
DYEAR=2006
DGENRE=Blues
TTITLE0=Asleep at the Wheel - Switchin in the Kitchen
TTITLE1=Ray`Bonneville - Tomorrow's Yesterday
TTITLE2=Corb`Lund - The`Truth Comes Out
TTITLE3=Ian`Tyson - This is My Sky
TTITLE4=Jay`Geils]p[Duke`Robillard]p[Gerry`Beaudoin - Benny's Buggle
TTITLE5=Amos`Garrett - Sam's Song (The Happy Tune)
TTITLE6=David`Wilcox - Play That Guitar Rag
TTITLE7=Marcia`Ball]p[Tracy`Nelson]p[Maria`Muldaur]p[Angela`Strehli - I Want a Tall Skinny Papa
TTITLE8=Jay`Geils - I Hear You Talkin' to Me
TTITLE9=Valdy and Gary Fjellgaard - The`Boys of Rhythm
TTITLE10=Spirit of the West - The`Crawl
TTITLE11=Jr Gone Wild - Just the Other Day
TTITLE12=Doug`Sahm - Louis Riel
TTITLE13=Emmylou`Harris - Born to Run
TTITLE14=Charlie`Major - The`Face of Love
TTITLE15=Steve`Earle - Goodbye
TTITLE16=Gillian`Welch - Look at Miss Ohio
TTITLE17=The`Holmes Brothers - Man of Peace
TTITLE18=Eric`Bibb - Put on Your Robes Son
EXTD=Canada's Roots, Rock, Folk, Country and Blues Label
EXTT0=
EXTT1=
EXTT2=
EXTT3=
EXTT4=
EXTT5=
EXTT6=
EXTT7=
EXTT8=
EXTT9=
EXTT10=
EXTT11=
EXTT12=
EXTT13=
EXTT14=
EXTT15=
EXTT16=
EXTT17=
EXTT18=
PLAYORDER=
